<?xml version="1.0" encoding="UTF-8"?>
<svg width="26px" height="26px" viewBox="0 0 26 26" version="1.1" xmlns="http://www.w3.org/2000/svg" xmlns:xlink="http://www.w3.org/1999/xlink">
    <title>linkedin icono copy</title>
    <defs>
        <filter id="filter-1">
            <feColorMatrix in="SourceGraphic" type="matrix" values="0 0 0 0 1.000000 0 0 0 0 1.000000 0 0 0 0 1.000000 0 0 0 1.000000 0"></feColorMatrix>
        </filter>
    </defs>
    <g id="Page-1" stroke="none" stroke-width="1" fill="none" fill-rule="evenodd">
        <g id="PREGUNTAS-FRECUENTES" transform="translate(-727.000000, -1433.000000)">
            <g id="footer-copy" transform="translate(-11.000000, 1187.000000)">
                <g id="icono-linkedin-copy" transform="translate(738.000000, 246.000000)" filter="url(#filter-1)">
                    <g transform="translate(5.000000, 5.000000)">
                        <path d="M15.9949341,16 C14.8191519,16 13.7434362,16 12.584853,16 C12.584853,14.8616465 12.5864165,13.7599626 12.584853,12.6566844 C12.5832894,11.6905188 12.605179,10.7227589 12.5629634,9.7565933 C12.5082395,8.50504216 11.8796963,7.82745078 10.87434,7.85296011 C9.85803886,7.87846943 9.08877708,8.71868274 9.07626876,9.88095125 C9.05750628,11.7909618 9.0700146,13.7009723 9.06845106,15.6109828 C9.06845106,15.7241804 9.04968857,15.8389724 9.03718025,15.9920283 C7.94113857,15.9920283 6.86855,15.9920283 5.76,15.9920283 C5.76,12.4605815 5.76,8.95623831 5.76,5.39609348 C6.83415212,5.39609348 7.90674069,5.39609348 9.05750628,5.39609348 C9.05750628,5.80264831 9.05750628,6.2076088 9.05750628,6.79591755 C9.82207743,5.82018596 10.6038475,5.21433955 11.690508,5.13462292 C13.9263704,4.97040666 15.5039825,6.19644847 15.8510884,8.45242919 C15.971481,9.23843519 15.9808623,10.0483562 15.9902435,10.8471168 C16.009006,12.5434868 15.9949341,14.2382624 15.9949341,16 Z" id="Path" fill="#FFFFFF" fill-rule="nonzero"></path>
                        <path d="M0,5.12 C1.24589914,5.12 2.50458611,5.12 3.84,5.12 C3.84,8.72757033 3.84,12.3384143 3.84,16 C2.58131304,16 1.32627973,16 0,16 C0,12.398977 0,8.78485934 0,5.12 Z" id="Path" fill="#FFFFFF" fill-rule="nonzero"></path>
                        <path d="M3.83993299,1.92757408 C3.84821583,3.03593011 3.08785142,3.81459578 1.96966845,3.83944681 C0.844859216,3.86429784 0.00332299993,3.04918399 0,1.93420102 C-0.00330326949,0.878860524 0.828293543,0.0289552278 1.89346635,0.000790724817 C3.00502305,-0.0290305137 3.82999359,0.787740073 3.83993299,1.92757408 Z" id="Path" fill="#FFFFFF" fill-rule="nonzero"></path>
                    </g>
                </g>
            </g>
        </g>
    </g>
</svg>