<?xml version="1.0" encoding="UTF-8"?>
<svg width="19px" height="19px" viewBox="0 0 19 19" version="1.1" xmlns="http://www.w3.org/2000/svg" xmlns:xlink="http://www.w3.org/1999/xlink">
    <title>whatspp icono</title>
    <g id="Page-1" stroke="none" stroke-width="1" fill="none" fill-rule="evenodd">
        <g id="inicio" transform="translate(-530.000000, -5207.000000)" fill="#FFFFFF" fill-rule="nonzero">
            <g id="whatspp-icono" transform="translate(530.000000, 5207.000000)">
                <path d="M8.90615625,0 C9.33483044,0 9.76383796,0 10.1925121,0 C10.5171845,0.0477511912 10.8425236,0.0915231164 11.1665292,0.143585179 C14.8429271,0.733842959 17.971982,3.67651011 18.7516623,7.28636752 C18.8566642,7.77349599 18.9183319,8.26957781 19,8.76168037 C19,9.18812503 19,9.6149013 19,10.041346 C18.9453324,10.4127441 18.904665,10.7867951 18.8339971,11.1552088 C17.6449762,17.3535787 10.83219,20.6513954 5.18209091,17.7700752 C5.08475587,17.7203344 4.94408674,17.7034225 4.83841822,17.7296194 C3.88840155,17.9673805 2.9410516,18.2150898 1.99470166,18.4664468 C1.34469026,18.6388816 0.697678907,18.8219278 0.0493341988,19 C0.033000579,18.9671711 0.0163336199,18.9343421 9.47406936e-15,18.9015132 C0.0156669415,18.8739899 0.0376673275,18.8481247 0.046000807,18.8182802 C0.465674836,17.2952162 0.885682205,15.7718205 1.29802277,14.2467668 C1.3203565,14.1641971 1.3033562,14.0504564 1.2616888,13.9745187 C0.181669854,12.0004712 -0.143335848,9.90870377 0.24033755,7.69755834 C0.864348497,4.10129675 3.81740031,1.01869208 7.39979649,0.249698937 C7.89680521,0.143253573 8.4038141,0.0822381626 8.90615625,0 Z M2.27570659,16.7367925 C2.35037457,16.7222019 2.39670871,16.7159014 2.4417095,16.7042952 C3.30205793,16.4827827 4.16373971,16.2662443 5.02108809,16.0341205 C5.1887577,15.9886905 5.31442657,16.0099133 5.45976245,16.0964623 C6.97212232,16.9954448 8.60448429,17.3598792 10.3608484,17.1884392 C14.9202618,16.7434246 18.1689854,12.3619212 17.253636,7.88425223 C16.3872875,3.64500759 12.2898823,0.913904742 8.02780751,1.73429673 C2.69304725,2.76161056 -0.0106668538,8.82170096 2.81304935,13.4452764 C2.99938595,13.7503534 3.04772014,14.0050264 2.93871822,14.3502278 C2.69304725,15.127511 2.4987105,15.921043 2.27570659,16.7367925 Z" id="Shape"></path>
                <path d="M4.71274935,7.29863693 C4.72908297,6.49946769 5.04775522,5.84885771 5.61543185,5.30568791 C5.83576905,5.09511842 6.10177372,5.05930502 6.39244548,5.06527392 C6.99178933,5.07787493 7.01145634,5.08483865 7.24412709,5.64226748 C7.45879752,6.1565876 7.66613449,6.67356057 7.89213846,7.18290661 C7.98480675,7.39214968 7.98747346,7.58249123 7.85647117,7.76255301 C7.68780154,7.99401365 7.5164652,8.22580589 7.32346182,8.43703859 C7.1667924,8.60847863 7.1361252,8.76134876 7.257794,8.96395972 C8.02780751,10.2462782 9.09615958,11.179416 10.4948508,11.7335288 C10.6981877,11.8141089 10.8595239,11.78128 10.9975263,11.6071871 C11.2165301,11.3302965 11.455201,11.067665 11.6615379,10.781821 C11.8182073,10.5646194 11.9932104,10.501946 12.2322146,10.6153551 C12.8712258,10.9184425 13.5089037,11.223188 14.1479149,11.5256122 C14.3419183,11.6174669 14.3492517,11.7862541 14.3405849,11.9643262 C14.2922507,12.9578163 13.5882384,13.7228302 12.5778873,13.8856485 C12.0302111,13.9741871 11.5005351,13.9161562 10.9678591,13.761628 C8.85048861,13.147163 7.25146055,11.8373213 5.95777119,10.1089935 C5.48376287,9.475627 5.03408832,8.82833307 4.84241829,8.04607571 C4.7820839,7.80101925 4.75475008,7.54800426 4.71274935,7.29863693 Z" id="Path"></path>
            </g>
        </g>
    </g>
</svg>