<?xml version="1.0" encoding="UTF-8"?>
<svg width="19px" height="19px" viewBox="0 0 19 19" version="1.1" xmlns="http://www.w3.org/2000/svg" xmlns:xlink="http://www.w3.org/1999/xlink">
    <title>correo icono</title>
    <g id="Page-1" stroke="none" stroke-width="1" fill="none" fill-rule="evenodd">
        <g id="inicio" transform="translate(-750.000000, -5209.000000)" fill="#FFFFFF" fill-rule="nonzero">
            <g id="correo-icono" transform="translate(750.000000, 5209.000000)">
                <path d="M18.2881054,18.7838042 C18.0509732,18.8523941 17.8177605,18.9467455 17.5757288,18.9821675 C17.3412096,19.0166235 17.0975448,18.99054 16.8581262,18.99054 C11.8264155,18.99054 6.79437819,18.9915061 1.76266749,18.9863538 C1.54415309,18.9860317 1.32073925,18.9457794 1.10875741,18.8894262 C0.759918268,18.7966849 0.75534547,18.7509583 1.0189346,18.4910894 C2.43878831,17.0915974 3.85864202,15.6921054 5.27849572,14.2926134 C5.56494884,14.0105253 5.86120081,13.7374537 6.13360891,13.4424848 C6.29528997,13.2676288 6.40471049,13.271493 6.5703111,13.4373325 C7.14191082,14.0111693 7.71938985,14.5795318 8.30764762,15.1366237 C8.76329426,15.5684504 9.32738152,15.701444 9.93131746,15.5684504 C10.2804832,15.491488 10.6031921,15.3221063 10.8658013,15.0586952 C11.4217229,14.5009593 11.992996,13.9580363 12.5430382,13.3945041 C12.7027595,13.2309187 12.7935622,13.2576462 12.937932,13.4009444 C14.4427091,14.8941438 15.9514057,16.383801 17.4623888,17.870882 C17.7357767,18.1400894 18.0245163,18.3938399 18.30607,18.6549968 C18.299864,18.6984693 18.2939847,18.7412977 18.2881054,18.7838042 Z" id="Path"></path>
                <path d="M18.3348133,6.96959275 C18.1456954,6.79666887 18.0137375,6.9109854 17.8765536,7.05009736 C17.1226952,7.8152131 16.3662238,8.57807471 15.6097524,9.34029229 C15.5431202,9.40727212 15.4683223,9.46684552 15.3500828,9.57214554 C15.3370177,9.41854276 15.3223194,9.32676752 15.3223194,9.23467025 C15.3203596,8.43606459 15.3530225,7.63584885 15.3102342,6.8391753 C15.2801843,6.27693115 15.1302619,5.72402555 14.5988375,5.38622823 C14.3388413,5.22103279 14.0703527,5.09447955 13.731639,5.09576763 C10.9294939,5.10832635 8.12702211,5.1128346 5.32520359,5.09576763 C4.6183797,5.09158139 3.85798876,5.7336861 3.8377378,6.41990733 C3.80964775,7.36438733 3.81716021,8.30983338 3.80964775,9.25463539 C3.80866787,9.35896936 3.80964775,9.4629813 3.80964775,9.54219783 C2.87124433,8.61703894 1.93218764,7.69091399 0.994437468,6.76639914 C1.09373251,6.66142114 1.23973541,6.47626055 1.41611475,6.32523392 C2.32544825,5.54627138 3.24327409,4.7769694 4.15652713,4.00219311 C5.40130801,2.94629474 6.64478237,1.88878628 7.88793011,0.830955806 C8.32071276,0.462888763 8.76133449,0.106414383 9.34828574,0.010452897 C9.47959036,-0.0111223364 9.62200035,0.00401252882 9.75526474,0.0259097807 C10.67799,0.17790247 11.2120275,0.906308114 11.8714902,1.44021464 C12.6681369,2.08553953 13.4282012,2.77401489 14.2117828,3.43511869 C15.2083261,4.27590876 16.214015,5.10639423 17.2121914,5.94525219 C17.5639702,6.24054307 17.9072567,6.54613855 18.251523,6.84980191 C18.2864722,6.88071567 18.3037836,6.93095055 18.3292606,6.9721689 L18.3348133,6.96959275 Z" id="Path"></path>
                <path d="M0.471832008,7.15861756 C0.576679729,7.32413502 0.637759242,7.47226349 0.742606962,7.57820755 C2.38620113,9.23628034 4.0343681,10.8898449 5.68547473,12.5405112 C5.81514621,12.6699626 5.83931671,12.7581957 5.69592684,12.8989177 C4.22152618,14.3415602 2.75300484,15.789677 1.2821971,17.2358617 C1.00194992,17.5111874 0.716476689,17.7813609 0.439169167,18.0592628 C0.294472781,18.2044931 0.205303224,18.1600545 0.168394213,17.9861646 C0.104701673,17.6863654 0.0103060618,17.3836681 0.00899954817,17.0819369 C-0.00275907467,14.1251638 -0.00243244626,11.1683908 0.00671314928,8.21161776 C0.00801966293,7.79170576 0.144876968,7.40431761 0.471832008,7.15861756 Z" id="Path"></path>
                <path d="M18.3286073,6.97313496 C18.7097827,7.13253407 18.9080461,7.43329927 18.9880701,7.81843328 C19.0076678,7.91278468 18.9972157,8.01325442 18.9972157,8.11114802 C18.9975423,11.1996266 18.9965624,14.2881052 18.9985222,17.3765837 C18.9985222,17.6564177 18.9913364,17.9301334 18.7741285,18.1813077 C18.7101093,18.1249545 18.6424972,18.0711774 18.5814177,18.011282 C16.8796837,16.3354982 15.1779496,14.6593924 13.4771955,12.9826425 C13.2207922,12.7298581 13.2211188,12.6796232 13.4752357,12.4278048 C14.913054,11.0028733 16.3518522,9.57890793 17.7886905,8.15301041 C17.9748687,7.96849386 18.1505948,7.77335071 18.3357931,7.58819012 C18.6340049,7.28967905 18.635638,7.29161116 18.3354665,6.96927074 C18.3348133,6.96959275 18.3286073,6.97313496 18.3286073,6.97313496 Z" id="Path"></path>
            </g>
        </g>
    </g>
</svg>