<?xml version="1.0" encoding="UTF-8"?>
<svg width="26px" height="26px" viewBox="0 0 26 26" version="1.1" xmlns="http://www.w3.org/2000/svg" xmlns:xlink="http://www.w3.org/1999/xlink">
    <title>facebook icono copy</title>
    <g id="Page-1" stroke="none" stroke-width="1" fill="none" fill-rule="evenodd">
        <g id="PREGUNTAS-FRECUENTES" transform="translate(-688.000000, -1433.000000)" fill="#FFFFFF" fill-rule="nonzero">
            <g id="footer-copy" transform="translate(-11.000000, 1187.000000)">
                <g id="facebook-icono" transform="translate(699.000000, 246.000000)">
                    <path d="M11.5222076,20.9984 C11.5222076,18.304 11.5222076,15.6272 11.5222076,12.9296 C11.0096746,12.9296 10.512533,12.9296 10,12.9296 C10,12.04 10,11.1728 10,10.2816 C10.4956025,10.2816 10.9927441,10.2816 11.5222076,10.2816 C11.5222076,10.184 11.5222076,10.1104 11.5222076,10.0368 C11.5222076,9.4528 11.5021988,8.8688 11.5299033,8.2864 C11.549912,7.8896 11.5960862,7.4832 11.7038259,7.104 C12.0147318,6.0096 12.7258135,5.2816 13.812445,5.1392 C14.8452067,5.0032 15.8995163,5.04 16.9584433,5 C16.9584433,5.9024 16.9584433,6.7424 16.9584433,7.608 C16.7614336,7.608 16.5675022,7.608 16.3735708,7.608 C16.0211082,7.608 15.6701847,7.6032 15.3177221,7.6096 C14.9175462,7.6176 14.6020229,7.856 14.5820141,8.2496 C14.548153,8.9136 14.5727792,9.5808 14.5727792,10.272 C15.3700528,10.272 16.1704046,10.272 17,10.272 C16.9122691,11.1696 16.8260774,12.0384 16.7383465,12.9232 C16.0041777,12.9232 15.2884785,12.9232 14.5496922,12.9232 C14.5496922,15.6224 14.5496922,18.3056 14.5496922,21 C13.5354002,20.9984 12.5441953,20.9984 11.5222076,20.9984 Z" id="icono-facebook-copy"></path>
                </g>
            </g>
        </g>
    </g>
</svg>