<?xml version="1.0" encoding="UTF-8"?>
<svg width="26px" height="26px" viewBox="0 0 26 26" version="1.1" xmlns="http://www.w3.org/2000/svg" xmlns:xlink="http://www.w3.org/1999/xlink">
    <title>youtube icono copy</title>
    <g id="Page-1" stroke="none" stroke-width="1" fill="none" fill-rule="evenodd">
        <g id="PREGUNTAS-FRECUENTES" transform="translate(-766.000000, -1433.000000)" fill="#FFFFFF" fill-rule="nonzero">
            <g id="footer-copy" transform="translate(-11.000000, 1187.000000)">
                <g id="youtube-icono" transform="translate(777.000000, 246.000000)">
                    <path d="M13.8061896,19.814851 C11.7323699,19.7534407 10.0553924,19.7113308 8.37841477,19.6481659 C7.95597003,19.6323746 7.51912377,19.6060559 7.11588107,19.4849898 C6.48061379,19.2937405 5.97175991,18.8954507 5.74933635,18.1550176 C5.41810128,17.0566501 5.38609789,15.9196817 5.35889501,14.7827134 C5.32369128,13.2544735 5.29968874,11.7227245 5.47730755,10.2032576 C5.53491365,9.71022037 5.68052907,9.20841027 5.87895008,8.76099218 C6.17338126,8.09074232 6.74144141,7.75035365 7.39911106,7.68894333 C8.44882222,7.59244139 9.50493406,7.51348525 10.5578456,7.50646693 C12.9564996,7.4906757 15.3551536,7.51348525 17.7538076,7.54682229 C18.3506708,7.55559519 18.9523345,7.62928758 19.5411969,7.74333533 C20.1540618,7.86264682 20.6165108,8.2574275 20.8885396,8.88907657 C21.1653689,9.53300772 21.2677797,10.2243125 21.2837814,10.9226357 C21.3205853,12.5333408 21.355789,14.144046 21.3237857,15.7547511 C21.3093841,16.4846567 21.1909716,17.228599 21.0069521,17.9321859 C20.7269225,19.011253 20.0564515,19.5464002 19.0307428,19.597283 C17.1585446,19.6885212 15.2847461,19.7534407 13.8061896,19.814851 Z M11.094867,10.9217669 C11.094867,12.77138 11.094867,14.5663054 11.094867,16.3944341 C12.589516,15.4862291 14.0559641,14.5936492 15.5754962,13.6698193 C14.0592818,12.7401299 12.5911749,11.8397375 11.094867,10.9217669 Z" id="icono-youutube-copy"></path>
                </g>
            </g>
        </g>
    </g>
</svg>